<?xml version="1.0" encoding="utf-8"?>
<!-- Generator: Adobe Illustrator 27.1.1, SVG Export Plug-In . SVG Version: 6.00 Build 0)  -->
<svg version="1.1" id="Layer_1" xmlns="http://www.w3.org/2000/svg" xmlns:xlink="http://www.w3.org/1999/xlink" x="0px" y="0px"
	 viewBox="0 0 1812.7 930.2" style="enable-background:new 0 0 1812.7 930.2;" xml:space="preserve">
<style type="text/css">
	.st0{opacity:0.44;fill:#3FD1FF;stroke:#000000;stroke-width:2;stroke-miterlimit:10;}
	.st1{opacity:0.44;fill:#FF9D00;stroke:#000000;stroke-width:2;stroke-miterlimit:10;}
	.st2{font-family:'MyriadPro-Regular';}
	.st3{font-size:36px;}
	.st4{fill:#2ADFFF;}
	.st5{fill:#FF9966;}
	.st6{fill:#FF6600;}
	.st7{font-size:21px;}
	.st8{fill:#29ABE2;}
	.st9{stroke:#3A414A;}
	.st10{fill:#3A414A;stroke:#3A414A;}
	.st11{fill:none;stroke:#3A414A;}
	.st12{fill:none;stroke:#000000;stroke-linejoin:round;}
	.st13{fill:none;stroke:#000000;stroke-miterlimit:10;}
	.st14{fill:none;stroke:#000000;}
</style>
<path class="st0" d="M1692.9,861.6H972.1c-16.9,0-30.5-13.7-30.5-30.5V540.9c0-16.9,13.7-30.5,30.5-30.5h720.9
	c16.9,0,30.5,13.7,30.5,30.5v290.1C1723.5,847.9,1709.8,861.6,1692.9,861.6z"/>
<path class="st1" d="M894.5,861.6H169.7c-16.9,0-30.5-13.7-30.5-30.5V540.9c0-16.9,13.7-30.5,30.5-30.5h724.8
	c16.9,0,30.5,13.7,30.5,30.5v290.1C925.1,847.9,911.4,861.6,894.5,861.6z"/>
<path class="st0" d="M1692.9,388.7H968.3c-16.9,0-30.5-13.7-30.5-30.5V68.5c0-16.9,13.7-30.5,30.5-30.5h724.6
	c16.9,0,30.5,13.7,30.5,30.5v289.7C1723.5,375,1709.8,388.7,1692.9,388.7z"/>
<path class="st1" d="M892.9,388.7H169.7c-16.9,0-30.5-13.7-30.5-30.5V68.5c0-16.9,13.7-30.5,30.5-30.5h723.2
	c16.9,0,30.5,13.7,30.5,30.5v289.7C923.5,375,909.8,388.7,892.9,388.7z"/>
<text transform="matrix(1 0 0 1 460.8992 90.0453)" class="st2 st3">PHP Core</text>
<text transform="matrix(1 0 0 1 1107.1776 90.0458)" class="st2 st3">Adobe SaaS Infrastructure</text>
<g>
	<g>
		<path class="st4" d="M979.9,846.5c-15.4,0-27.9-12.5-27.9-27.9V626.9c0-15.4,12.5-27.9,27.9-27.9h699c15.4,0,27.9,12.5,27.9,27.9
			v191.8c0,15.4-12.5,27.9-27.9,27.9H979.9z"/>
		<path d="M1678.8,600c14.8,0,26.9,12.1,26.9,26.9v191.8c0,14.8-12.1,26.9-26.9,26.9h-699c-14.8,0-26.9-12.1-26.9-26.9V626.9
			c0-14.8,12.1-26.9,26.9-26.9H1678.8 M1678.8,598h-699c-15.9,0-28.9,12.9-28.9,28.9v191.8c0,15.9,12.9,28.9,28.9,28.9h699
			c15.9,0,28.9-12.9,28.9-28.9V626.9C1707.7,610.9,1694.8,598,1678.8,598L1678.8,598z"/>
	</g>
	<g>
		<path class="st5" d="M182.7,846.5c-15.4,0-27.9-12.5-27.9-27.9V626.9c0-15.4,12.5-27.9,27.9-27.9h699c15.4,0,27.9,12.5,27.9,27.9
			v191.8c0,15.4-12.5,27.9-27.9,27.9H182.7z"/>
		<path d="M881.7,600c14.8,0,26.9,12.1,26.9,26.9v191.8c0,14.8-12.1,26.9-26.9,26.9h-699c-14.8,0-26.9-12.1-26.9-26.9V626.9
			c0-14.8,12.1-26.9,26.9-26.9H881.7 M881.7,598h-699c-15.9,0-28.9,12.9-28.9,28.9v191.8c0,15.9,12.9,28.9,28.9,28.9h699
			c15.9,0,28.9-12.9,28.9-28.9V626.9C910.5,610.9,897.6,598,881.7,598L881.7,598z"/>
	</g>
	<g>
		<g>
			<path class="st6" d="M684.1,757c-6.3,0-11.5-5.1-11.5-11.5v-37.1c0-6.3,5.1-11.5,11.5-11.5h186.1c6.3,0,11.5,5.1,11.5,11.5v37.1
				c0,6.3-5.1,11.5-11.5,11.5H684.1z"/>
			<path d="M870.2,698c5.8,0,10.5,4.7,10.5,10.5v37.1c0,5.8-4.7,10.5-10.5,10.5H684.1c-5.8,0-10.5-4.7-10.5-10.5v-37.1
				c0-5.8,4.7-10.5,10.5-10.5H870.2 M870.2,696H684.1c-6.9,0-12.5,5.6-12.5,12.5v37.1c0,6.9,5.6,12.5,12.5,12.5h186.1
				c6.9,0,12.5-5.6,12.5-12.5v-37.1C882.6,701.6,877,696,870.2,696L870.2,696z"/>
		</g>
		<text transform="matrix(1 0 0 1 728.1551 720.5415)"><tspan x="0" y="0" class="st2 st7">Integration </tspan><tspan x="5.5" y="25.2" class="st2 st7">Data Sync</tspan></text>
	</g>
	<g>
		<g>
			<path class="st8" d="M1234.6,757c-6.3,0-11.5-5.1-11.5-11.5v-37.1c0-6.3,5.1-11.5,11.5-11.5h148.9c6.3,0,11.5,5.1,11.5,11.5v37.1
				c0,6.3-5.1,11.5-11.5,11.5H1234.6z"/>
			<path d="M1383.5,698c5.8,0,10.5,4.7,10.5,10.5v37.1c0,5.8-4.7,10.5-10.5,10.5h-148.9c-5.8,0-10.5-4.7-10.5-10.5v-37.1
				c0-5.8,4.7-10.5,10.5-10.5H1383.5 M1383.5,696h-148.9c-6.9,0-12.5,5.6-12.5,12.5v37.1c0,6.9,5.6,12.5,12.5,12.5h148.9
				c6.9,0,12.5-5.6,12.5-12.5v-37.1C1395.9,701.6,1390.3,696,1383.5,696L1383.5,696z"/>
		</g>
		<text transform="matrix(1 0 0 1 1288.5435 733.1421)" class="st2 st7">SaaS</text>
	</g>
	<g>
		<g>
			<path class="st8" d="M1461.4,834c-6.3,0-11.5-5.1-11.5-11.5v-37.1c0-6.3,5.1-11.5,11.5-11.5h186.1c6.3,0,11.5,5.1,11.5,11.5v37.1
				c0,6.3-5.1,11.5-11.5,11.5H1461.4z"/>
			<path d="M1647.4,775c5.8,0,10.5,4.7,10.5,10.5v37.1c0,5.8-4.7,10.5-10.5,10.5h-186.1c-5.8,0-10.5-4.7-10.5-10.5v-37.1
				c0-5.8,4.7-10.5,10.5-10.5H1647.4 M1647.4,773h-186.1c-6.9,0-12.5,5.6-12.5,12.5v37.1c0,6.9,5.6,12.5,12.5,12.5h186.1
				c6.9,0,12.5-5.6,12.5-12.5v-37.1C1659.9,778.6,1654.3,773,1647.4,773L1647.4,773z"/>
		</g>
		<text transform="matrix(1 0 0 1 1519.7316 797.5654)"><tspan x="0" y="0" class="st2 st7">Product </tspan><tspan x="-48" y="25.2" class="st2 st7">Recommendations</tspan></text>
	</g>
	<g>
		<g>
			<path class="st8" d="M1461.4,757c-6.3,0-11.5-5.1-11.5-11.5v-37.1c0-6.3,5.1-11.5,11.5-11.5h186.1c6.3,0,11.5,5.1,11.5,11.5v37.1
				c0,6.3-5.1,11.5-11.5,11.5H1461.4z"/>
			<path d="M1647.4,698c5.8,0,10.5,4.7,10.5,10.5v37.1c0,5.8-4.7,10.5-10.5,10.5h-186.1c-5.8,0-10.5-4.7-10.5-10.5v-37.1
				c0-5.8,4.7-10.5,10.5-10.5H1647.4 M1647.4,696h-186.1c-6.9,0-12.5,5.6-12.5,12.5v37.1c0,6.9,5.6,12.5,12.5,12.5h186.1
				c6.9,0,12.5-5.6,12.5-12.5v-37.1C1659.9,701.6,1654.3,696,1647.4,696L1647.4,696z"/>
		</g>
		<text transform="matrix(1 0 0 1 1487.0358 733.1423)" class="st2 st7">Catalog Service</text>
	</g>
	<g>
		<g>
			<path class="st8" d="M1461.4,672.5c-6.3,0-11.5-5.1-11.5-11.5V624c0-6.3,5.1-11.5,11.5-11.5h186.1c6.3,0,11.5,5.1,11.5,11.5V661
				c0,6.3-5.1,11.5-11.5,11.5H1461.4z"/>
			<path d="M1647.4,613.5c5.8,0,10.5,4.7,10.5,10.5V661c0,5.8-4.7,10.5-10.5,10.5h-186.1c-5.8,0-10.5-4.7-10.5-10.5V624
				c0-5.8,4.7-10.5,10.5-10.5H1647.4 M1647.4,611.5h-186.1c-6.9,0-12.5,5.6-12.5,12.5V661c0,6.9,5.6,12.5,12.5,12.5h186.1
				c6.9,0,12.5-5.6,12.5-12.5V624C1659.9,617.1,1654.3,611.5,1647.4,611.5L1647.4,611.5z"/>
		</g>
		<text transform="matrix(1 0 0 1 1504.9904 648.6565)" class="st2 st7">Live Search</text>
	</g>
	<g>
		<g>
			<path class="st6" d="M186,757c-6.3,0-11.5-5.1-11.5-11.5v-37.1c0-6.3,5.1-11.5,11.5-11.5h186.1c6.3,0,11.5,5.1,11.5,11.5v37.1
				c0,6.3-5.1,11.5-11.5,11.5H186z"/>
			<path d="M372.1,698c5.8,0,10.5,4.7,10.5,10.5v37.1c0,5.8-4.7,10.5-10.5,10.5H186c-5.8,0-10.5-4.7-10.5-10.5v-37.1
				c0-5.8,4.7-10.5,10.5-10.5H372.1 M372.1,696H186c-6.9,0-12.5,5.6-12.5,12.5v37.1c0,6.9,5.6,12.5,12.5,12.5h186.1
				c6.9,0,12.5-5.6,12.5-12.5v-37.1C384.5,701.6,378.9,696,372.1,696L372.1,696z"/>
		</g>
		<text transform="matrix(1 0 0 1 221.7051 733.1416)" class="st2 st7">Product Data</text>
	</g>
	<g>
		<path class="st9" d="M673.5,726.9l-14.2,4.7v-9.3L673.5,726.9z"/>
		<line class="st9" x1="632.5" y1="727" x2="659.3" y2="727"/>
	</g>
	<g>
		<path class="st10" d="M1221.2,726.9l-14.2,4.7v-9.3L1221.2,726.9z"/>
		<line class="st11" x1="1180.3" y1="727" x2="1207" y2="727"/>
	</g>
	<path class="st12" d="M1396.2,727.1h0.7l1.1,0.1l1,0.2l1,0.2l1,0.3l1,0.3l1,0.4l1,0.5l1,0.6l1,0.6l1,0.7l1,0.8l1.1,0.9l1.2,1.1
		l1.2,1.3l1.3,1.6l1.4,1.9l1.6,2.4l1.8,3l2.2,4.1l2.9,6.4l15.3,37.5l2.2,4.1l1.8,3l1.6,2.4l1.4,1.9l1.3,1.6l1.2,1.3l1.1,1.1l0.6,0.5
		"/>
	<path class="st12" d="M1448.9,646.1l-0.6,0.5l-1.1,1.1l-1.2,1.3l-1.3,1.6l-1.4,1.9l-1.6,2.4l-1.8,3l-2.2,4.1l-15.3,37.5l-2.9,6.4
		l-2.2,4.1l-1.8,3l-1.6,2.4l-1.4,1.9l-1.3,1.6l-1.2,1.3l-1.2,1.1l-1.1,0.9l-1,0.8l-1,0.7l-1,0.6l-1,0.6l-1,0.5l-1,0.4l-1,0.3l-1,0.3
		l-1,0.2l-1,0.2l-1.1,0.1h-0.7"/>
	<g>
		<line class="st13" x1="1398.3" y1="727.4" x2="1448.9" y2="727"/>
	</g>
	<g>
		<path class="st8" d="M982.7,756.7c-6.3,0-11.5-5.1-11.5-11.5v-37.1c0-6.3,5.1-11.5,11.5-11.5h186.1c6.3,0,11.5,5.1,11.5,11.5v37.1
			c0,6.3-5.1,11.5-11.5,11.5H982.7z"/>
		<g>
			<path d="M1168.8,697.7c5.8,0,10.5,4.7,10.5,10.5v37.1c0,5.8-4.7,10.5-10.5,10.5H982.7c-5.8,0-10.5-4.7-10.5-10.5v-37.1
				c0-5.8,4.7-10.5,10.5-10.5H1168.8 M1168.8,695.7H982.7c-6.9,0-12.5,5.6-12.5,12.5v37.1c0,6.9,5.6,12.5,12.5,12.5h186.1
				c6.9,0,12.5-5.6,12.5-12.5v-37.1C1181.3,701.3,1175.7,695.7,1168.8,695.7L1168.8,695.7z"/>
		</g>
	</g>
	<text transform="matrix(1 0 0 1 1028.7739 732.9031)" class="st2 st7">Indexation</text>
	<g>
		<path class="st9" d="M970.4,722.7l-14.2,4.7v-9.3L970.4,722.7z"/>
		<line class="st9" x1="929.5" y1="722.7" x2="956.2" y2="722.7"/>
	</g>
	<line class="st14" x1="384.5" y1="726.7" x2="632.5" y2="727"/>
	<g>
		<line class="st13" x1="882.6" y1="722.3" x2="929.5" y2="722.7"/>
	</g>
</g>
<g>
	<g>
		<path class="st4" d="M979.9,369.9c-15.4,0-27.9-12.5-27.9-27.9V150.3c0-15.4,12.5-27.9,27.9-27.9h699c15.4,0,27.9,12.5,27.9,27.9
			v191.8c0,15.4-12.5,27.9-27.9,27.9H979.9z"/>
		<path d="M1678.8,123.4c14.8,0,26.9,12.1,26.9,26.9v191.8c0,14.8-12.1,26.9-26.9,26.9h-699c-14.8,0-26.9-12.1-26.9-26.9V150.3
			c0-14.8,12.1-26.9,26.9-26.9H1678.8 M1678.8,121.4h-699c-15.9,0-28.9,12.9-28.9,28.9v191.8c0,15.9,12.9,28.9,28.9,28.9h699
			c15.9,0,28.9-12.9,28.9-28.9V150.3C1707.7,134.3,1694.8,121.4,1678.8,121.4L1678.8,121.4z"/>
	</g>
	<g>
		<path class="st5" d="M182.7,369.9c-15.4,0-27.9-12.5-27.9-27.9V150.3c0-15.4,12.5-27.9,27.9-27.9h699c15.4,0,27.9,12.5,27.9,27.9
			v191.8c0,15.4-12.5,27.9-27.9,27.9H182.7z"/>
		<path d="M881.7,123.4c14.8,0,26.9,12.1,26.9,26.9v191.8c0,14.8-12.1,26.9-26.9,26.9h-699c-14.8,0-26.9-12.1-26.9-26.9V150.3
			c0-14.8,12.1-26.9,26.9-26.9H881.7 M881.7,121.4h-699c-15.9,0-28.9,12.9-28.9,28.9v191.8c0,15.9,12.9,28.9,28.9,28.9h699
			c15.9,0,28.9-12.9,28.9-28.9V150.3C910.5,134.3,897.6,121.4,881.7,121.4L881.7,121.4z"/>
	</g>
	<g>
		<g>
			<path class="st6" d="M684.1,280.4c-6.3,0-11.5-5.1-11.5-11.5v-37.1c0-6.3,5.1-11.5,11.5-11.5h186.1c6.3,0,11.5,5.1,11.5,11.5
				v37.1c0,6.3-5.1,11.5-11.5,11.5H684.1z"/>
			<path d="M870.2,221.4c5.8,0,10.5,4.7,10.5,10.5v37.1c0,5.8-4.7,10.5-10.5,10.5H684.1c-5.8,0-10.5-4.7-10.5-10.5v-37.1
				c0-5.8,4.7-10.5,10.5-10.5H870.2 M870.2,219.4H684.1c-6.9,0-12.5,5.6-12.5,12.5v37.1c0,6.9,5.6,12.5,12.5,12.5h186.1
				c6.9,0,12.5-5.6,12.5-12.5v-37.1C882.6,225,877,219.4,870.2,219.4L870.2,219.4z"/>
		</g>
		<text transform="matrix(1 0 0 1 728.1551 243.9731)"><tspan x="0" y="0" class="st2 st7">Integration </tspan><tspan x="5.5" y="25.2" class="st2 st7">Data Sync</tspan></text>
	</g>
	<g>
		<g>
			<path class="st6" d="M436.4,280.4c-6.3,0-11.5-5.1-11.5-11.5v-37.1c0-6.3,5.1-11.5,11.5-11.5h186.1c6.3,0,11.5,5.1,11.5,11.5
				v37.1c0,6.3-5.1,11.5-11.5,11.5H436.4z"/>
			<path d="M622.5,221.4c5.8,0,10.5,4.7,10.5,10.5v37.1c0,5.8-4.7,10.5-10.5,10.5H436.4c-5.8,0-10.5-4.7-10.5-10.5v-37.1
				c0-5.8,4.7-10.5,10.5-10.5H622.5 M622.5,219.4H436.4c-6.9,0-12.5,5.6-12.5,12.5v37.1c0,6.9,5.6,12.5,12.5,12.5h186.1
				c6.9,0,12.5-5.6,12.5-12.5v-37.1C635,225,629.4,219.4,622.5,219.4L622.5,219.4z"/>
		</g>
		<text transform="matrix(1 0 0 1 482.4849 256.5732)" class="st2 st7">Indexation</text>
	</g>
	<g>
		<g>
			<path class="st8" d="M1461.4,357.4c-6.3,0-11.5-5.1-11.5-11.5v-37.1c0-6.3,5.1-11.5,11.5-11.5h186.1c6.3,0,11.5,5.1,11.5,11.5
				V346c0,6.3-5.1,11.5-11.5,11.5H1461.4z"/>
			<path d="M1647.4,298.4c5.8,0,10.5,4.7,10.5,10.5V346c0,5.8-4.7,10.5-10.5,10.5h-186.1c-5.8,0-10.5-4.7-10.5-10.5v-37.1
				c0-5.8,4.7-10.5,10.5-10.5H1647.4 M1647.4,296.4h-186.1c-6.9,0-12.5,5.6-12.5,12.5V346c0,6.9,5.6,12.5,12.5,12.5h186.1
				c6.9,0,12.5-5.6,12.5-12.5v-37.1C1659.9,302,1654.3,296.4,1647.4,296.4L1647.4,296.4z"/>
		</g>
		<text transform="matrix(1 0 0 1 1519.7316 320.997)"><tspan x="0" y="0" class="st2 st7">Product </tspan><tspan x="-48" y="25.2" class="st2 st7">Recommendations</tspan></text>
	</g>
	<g>
		<g>
			<path class="st8" d="M1461.4,280.4c-6.3,0-11.5-5.1-11.5-11.5v-37.1c0-6.3,5.1-11.5,11.5-11.5h186.1c6.3,0,11.5,5.1,11.5,11.5
				v37.1c0,6.3-5.1,11.5-11.5,11.5H1461.4z"/>
			<path d="M1647.4,221.4c5.8,0,10.5,4.7,10.5,10.5v37.1c0,5.8-4.7,10.5-10.5,10.5h-186.1c-5.8,0-10.5-4.7-10.5-10.5v-37.1
				c0-5.8,4.7-10.5,10.5-10.5H1647.4 M1647.4,219.4h-186.1c-6.9,0-12.5,5.6-12.5,12.5v37.1c0,6.9,5.6,12.5,12.5,12.5h186.1
				c6.9,0,12.5-5.6,12.5-12.5v-37.1C1659.9,225,1654.3,219.4,1647.4,219.4L1647.4,219.4z"/>
		</g>
		<text transform="matrix(1 0 0 1 1487.0358 256.5739)" class="st2 st7">Catalog Service</text>
	</g>
	<g>
		<g>
			<path class="st8" d="M1461.4,195.9c-6.3,0-11.5-5.1-11.5-11.5v-37.1c0-6.3,5.1-11.5,11.5-11.5h186.1c6.3,0,11.5,5.1,11.5,11.5
				v37.1c0,6.3-5.1,11.5-11.5,11.5H1461.4z"/>
			<path d="M1647.4,136.9c5.8,0,10.5,4.7,10.5,10.5v37.1c0,5.8-4.7,10.5-10.5,10.5h-186.1c-5.8,0-10.5-4.7-10.5-10.5v-37.1
				c0-5.8,4.7-10.5,10.5-10.5H1647.4 M1647.4,134.9h-186.1c-6.9,0-12.5,5.6-12.5,12.5v37.1c0,6.9,5.6,12.5,12.5,12.5h186.1
				c6.9,0,12.5-5.6,12.5-12.5v-37.1C1659.9,140.5,1654.3,134.9,1647.4,134.9L1647.4,134.9z"/>
		</g>
		<text transform="matrix(1 0 0 1 1504.9904 172.0881)" class="st2 st7">Live Search</text>
	</g>
	<g>
		<g>
			<path class="st6" d="M186,280.4c-6.3,0-11.5-5.1-11.5-11.5v-37.1c0-6.3,5.1-11.5,11.5-11.5h186.1c6.3,0,11.5,5.1,11.5,11.5v37.1
				c0,6.3-5.1,11.5-11.5,11.5H186z"/>
			<path d="M372.1,221.4c5.8,0,10.5,4.7,10.5,10.5v37.1c0,5.8-4.7,10.5-10.5,10.5H186c-5.8,0-10.5-4.7-10.5-10.5v-37.1
				c0-5.8,4.7-10.5,10.5-10.5H372.1 M372.1,219.4H186c-6.9,0-12.5,5.6-12.5,12.5v37.1c0,6.9,5.6,12.5,12.5,12.5h186.1
				c6.9,0,12.5-5.6,12.5-12.5v-37.1C384.5,225,378.9,219.4,372.1,219.4L372.1,219.4z"/>
		</g>
		<text transform="matrix(1 0 0 1 221.7051 256.5732)" class="st2 st7">Product Data</text>
	</g>
	<g>
		<path class="st9" d="M425.5,250.4l-14.2,4.7v-9.3L425.5,250.4z"/>
		<line class="st9" x1="384.5" y1="250.4" x2="411.3" y2="250.4"/>
	</g>
	<g>
		<path class="st9" d="M671.9,250.4l-13.3,4.7v-9.3L671.9,250.4z"/>
		<line class="st9" x1="633.6" y1="250.4" x2="658.6" y2="250.4"/>
	</g>
	<g>
		<path class="st10" d="M1223.2,250.4l-14.2,4.7v-9.3L1223.2,250.4z"/>
		<line class="st11" x1="1182.3" y1="250.4" x2="1209" y2="250.4"/>
	</g>
	<g>
		<line class="st13" x1="882.6" y1="250.4" x2="1182.3" y2="250.4"/>
	</g>
	<path class="st12" d="M1396.2,250.5h0.7l1.1,0.1l1,0.2l1,0.2l1,0.3l1,0.3l1,0.4l1,0.5l1,0.6l1,0.6l1,0.7l1,0.8l1.1,0.9l1.2,1.1
		l1.2,1.3l1.3,1.6l1.4,1.9l1.6,2.4l1.8,3l2.2,4.1l2.9,6.4l15.3,37.5l2.2,4.1l1.8,3l1.6,2.4l1.4,1.9l1.3,1.6l1.2,1.3l1.1,1.1l0.6,0.5
		"/>
	<path class="st12" d="M1448.9,169.5l-0.6,0.5l-1.1,1.1l-1.2,1.3l-1.3,1.6l-1.4,1.9l-1.6,2.4l-1.8,3l-2.2,4.1l-15.3,37.5l-2.9,6.4
		l-2.2,4.1l-1.8,3l-1.6,2.4l-1.4,1.9l-1.3,1.6l-1.2,1.3l-1.2,1.1l-1.1,0.9l-1,0.8l-1,0.7l-1,0.6l-1,0.6l-1,0.5l-1,0.4l-1,0.3l-1,0.3
		l-1,0.2l-1,0.2l-1.1,0.1h-0.7"/>
	<g>
		<line class="st13" x1="1398.3" y1="250.9" x2="1448.9" y2="250.4"/>
	</g>
	<g>
		<g>
			<path class="st8" d="M1235,284.8c-6.3,0-11.5-5.1-11.5-11.5v-37.1c0-6.3,5.1-11.5,11.5-11.5h148.9c6.3,0,11.5,5.1,11.5,11.5v37.1
				c0,6.3-5.1,11.5-11.5,11.5H1235z"/>
			<path d="M1383.9,225.8c5.8,0,10.5,4.7,10.5,10.5v37.1c0,5.8-4.7,10.5-10.5,10.5H1235c-5.8,0-10.5-4.7-10.5-10.5v-37.1
				c0-5.8,4.7-10.5,10.5-10.5H1383.9 M1383.9,223.8H1235c-6.9,0-12.5,5.6-12.5,12.5v37.1c0,6.9,5.6,12.5,12.5,12.5h148.9
				c6.9,0,12.5-5.6,12.5-12.5v-37.1C1396.3,229.4,1390.8,223.8,1383.9,223.8L1383.9,223.8z"/>
		</g>
		<text transform="matrix(1 0 0 1 1288.9701 260.9523)" class="st2 st7">SaaS</text>
	</g>
</g>
<text transform="matrix(1 0 0 1 462.4755 562.498)" class="st2 st3">PHP Core</text>
<text transform="matrix(1 0 0 1 1110.933 562.4985)" class="st2 st3">Adobe SaaS Infrastructure</text>
</svg>
