<?xml version="1.0" encoding="utf-8"?>
<!-- Generator: Adobe Illustrator 26.1.0, SVG Export Plug-In . SVG Version: 6.00 Build 0)  -->
<svg version="1.1" xmlns="http://www.w3.org/2000/svg" xmlns:xlink="http://www.w3.org/1999/xlink" x="0px" y="0px"
	 viewBox="0 0 1356.46 392.85" style="enable-background:new 0 0 1356.46 392.85;" xml:space="preserve">
<style type="text/css">
	.st0{fill:none;stroke:#000000;stroke-width:2;stroke-miterlimit:10;}
	.st1{font-family:'OpenSans';}
	.st2{font-size:14px;}
	.st3{fill:#B62E35;}
	.st4{fill:#FFFFFF;}
	.st5{font-family:'OpenSans-Bold';}
	.st6{font-size:30px;}
	.st7{font-family:'OpenSans-Semibold';}
	.st8{font-size:18px;}
	.st9{fill:none;stroke:#000000;stroke-width:0.6905;stroke-miterlimit:10;stroke-dasharray:5.6108,5.6108;}
	.st10{fill:none;stroke:#000000;stroke-width:0.7028;stroke-miterlimit:10;stroke-dasharray:5.7112,5.7112;}
</style>
<g id="Layer_1">
	<path class="st0" d="M531.63,200.25L531.63,200.25L531.63,200.25z"/>
	<text transform="matrix(1 0 0 1 959.1505 149.9452)"><tspan x="0" y="0" class="st1 st2">• Take a quick tour of the storefront</tspan><tspan x="0" y="33.6" class="st1 st2">• Explore Live Search from the Admin</tspan></text>
	<text transform="matrix(1 0 0 1 526.0536 149.9452)"><tspan x="0" y="0" class="st1 st2">• Configure API keys</tspan><tspan x="0" y="33.6" class="st1 st2">• Verify catalog synchronization</tspan></text>
	<text transform="matrix(1 0 0 1 125.994 216.7818)"><tspan x="0" y="0" class="st1 st2">• Method 1</tspan><tspan x="0" y="33.6" class="st1 st2">  Install Live Search without Elasticsearch</tspan></text>
	<text transform="matrix(1 0 0 1 122.2827 301.0609)"><tspan x="0" y="0" class="st1 st2">• Method 2  (no downtime)</tspan><tspan x="0" y="33.6" class="st1 st2">  Install Live Search with Elasticsearch</tspan></text>
</g>
<g id="Layer_2">
	<g>
		<g>
			<circle class="st3" cx="90.43" cy="77.1" r="18.2"/>
		</g>
		<text transform="matrix(1 0 0 1 80.6814 87.6232)" class="st4 st5 st6">1</text>
	</g>
	<g>
		<g>
			<circle class="st3" cx="931.33" cy="77.1" r="18.2"/>
		</g>
		<text transform="matrix(1 0 0 1 921.8525 87.6232)" class="st4 st5 st6">3</text>
	</g>
	<g>
		<g>
			<circle class="st3" cx="495.55" cy="77.1" r="18.2"/>
		</g>
		<text transform="matrix(1 0 0 1 487.8827 87.2778)" class="st4 st5 st6">2</text>
	</g>
	<path class="st0" d="M531.63,200.25L531.63,200.25L531.63,200.25z"/>
	<text transform="matrix(1 0 0 1 125.994 154.6081)"><tspan x="0" y="0" class="st1 st2">Use the method you prefer to install Live Search </tspan><tspan x="0" y="16.8" class="st1 st2">from the command line:</tspan></text>
	<text transform="matrix(1 0 0 1 526.0534 84.8409)" class="st7 st8">Configure Live Search</text>
	<text transform="matrix(1 0 0 1 125.9938 82.608)" class="st7 st8">Install Live Search</text>
	<g>
		<g>
			<line class="st9" x1="292.88" y1="77.1" x2="465.71" y2="77.1"/>
			<g>
				<polygon points="465.15,72.9 465.15,81.29 469.34,77.1 				"/>
			</g>
		</g>
	</g>
	<text transform="matrix(1 0 0 1 959.1509 84.8409)" class="st7 st8">Learn Live Search</text>
	<g>
		<g>
			<line class="st10" x1="721.76" y1="77.1" x2="900.9" y2="77.1"/>
			<g>
				<polygon points="900.33,72.83 900.33,81.37 904.6,77.1 				"/>
			</g>
		</g>
	</g>
</g>
</svg>
