<?xml version="1.0" encoding="utf-8"?>
<!-- Generator: Adobe Illustrator 27.1.1, SVG Export Plug-In . SVG Version: 6.00 Build 0)  -->
<svg version="1.1" id="Layer_1" xmlns="http://www.w3.org/2000/svg" xmlns:xlink="http://www.w3.org/1999/xlink" x="0px" y="0px"
	 viewBox="0 0 790 431" style="enable-background:new 0 0 790 431;" xml:space="preserve">
<style type="text/css">
	.st0{fill:#FFFFFF;stroke:#C4D1E3;stroke-width:2;}
	.st1{fill:none;stroke:#D6B656;stroke-miterlimit:10;}
	.st2{fill:#D6B656;stroke:#D6B656;stroke-miterlimit:10;}
	.st3{font-family:'Helvetica';}
	.st4{font-size:11px;}
	.st5{fill:#FFF2CC;stroke:#D6B656;}
	.st6{font-size:12px;}
	.st7{fill:none;stroke:#000000;stroke-miterlimit:10;stroke-dasharray:3,3;}
	.st8{stroke:#000000;stroke-miterlimit:10;}
	.st9{fill:none;stroke:#000000;stroke-miterlimit:10;}
	.st10{fill:#DAE8FC;stroke:#6C8EBF;}
	.st11{enable-background:new    ;}
	.st12{fill:none;stroke:#FF0000;stroke-miterlimit:10;}
	.st13{fill:none;}
	.st14{fill:#FFF2CC;stroke:#D6B656;stroke-width:2;}
</style>
<g>
	<path pointer-events="all" class="st0" d="M381.8,147.5h268.4c6.8,0,12.3,5.5,12.3,12.3v57.4c0,6.8-5.5,12.3-12.3,12.3H381.8
		c-6.8,0-12.3-5.5-12.3-12.3v-57.4C369.5,153,375,147.5,381.8,147.5z"/>
	<path pointer-events="stroke" class="st1" d="M246.5,100.5v243.6"/>
	<path pointer-events="all" class="st2" d="M246.5,349.4l-3.5-7l3.5,1.8l3.5-1.8L246.5,349.4z"/>
	<g transform="translate(-0.5 -0.5)">
		<text transform="matrix(1 0 0 1 238.9412 218.5)" class="st3 st4">Tax</text>
	</g>
	<path pointer-events="all" class="st5" d="M131,70.5h231c2.5,0,4.5,2,4.5,4.5v21c0,2.5-2,4.5-4.5,4.5H131c-2.5,0-4.5-2-4.5-4.5V75
		C126.5,72.5,128.5,70.5,131,70.5z"/>
	<g transform="translate(-0.5 -0.5)">
		<text transform="matrix(1 0 0 1 207.1484 89.5)" class="st3 st6">Core GraphQL</text>
	</g>
	<path pointer-events="stroke" class="st7" d="M366.5,390.5H522V232.4"/>
	<path pointer-events="all" class="st8" d="M522,227.1l3.5,7l-3.5-1.8l-3.5,1.8L522,227.1z"/>
	<g transform="translate(-0.5 -0.5)">
		<text transform="matrix(1 0 0 1 494.8115 302.5)" class="st3 st6">Indexation</text>
	</g>
	<path pointer-events="all" class="st5" d="M138.5,350.5h216c6.6,0,12,5.4,12,12v56c0,6.6-5.4,12-12,12h-216c-6.6,0-12-5.4-12-12
		v-56C126.5,355.9,131.9,350.5,138.5,350.5z"/>
	<g transform="translate(-0.5 -0.5)">
		<text transform="matrix(1 0 0 1 198.1455 394.5)" class="st3 st6">Adobe Commerce</text>
	</g>
	<path pointer-events="stroke" class="st1" d="M296.5,100.5v125l-0.1,115.7"/>
	<path pointer-events="all" class="st2" d="M296.4,346.4l-3.5-7l3.5,1.8l3.5-1.8L296.4,346.4z"/>
	<g transform="translate(-0.5 -0.5)">
		<text transform="matrix(1 0 0 1 275.6604 205.5)" class="st3 st4">Customer</text>
	</g>
	<path pointer-events="stroke" class="st1" d="M146.5,100.5v125l-0.1,114.6"/>
	<path pointer-events="all" class="st2" d="M146.4,345.4l-3.5-7l3.5,1.8l3.5-1.8L146.4,345.4z"/>
	<g transform="translate(-0.5 -0.5)">
		<text transform="matrix(1 0 0 1 125.0935 247.5)" class="st3 st4">Shipping</text>
	</g>
	<path pointer-events="stroke" class="st1" d="M196.5,100.5v125l0.1,117.7"/>
	<path pointer-events="all" class="st2" d="M196.6,348.4l-3.5-7l3.5,1.8l3.5-1.8L196.6,348.4z"/>
	<g transform="translate(-0.5 -0.5)">
		<text transform="matrix(1 0 0 1 175.7954 228.5)" class="st3 st4">Payment</text>
	</g>
	<path pointer-events="stroke" class="st1" d="M346.5,100.5v125l0.1,116.6"/>
	<path pointer-events="all" class="st2" d="M346.6,347.4l-3.5-7l3.5,1.8l3.5-1.8L346.6,347.4z"/>
	<g transform="translate(-0.5 -0.5)">
		<text transform="matrix(1 0 0 1 322.7954 187.5)" class="st3 st4">Products</text>
	</g>
	<path pointer-events="stroke" class="st9" d="M246.4,33.5l0,17l0.1,13.6"/>
	<path pointer-events="all" class="st8" d="M246.5,69.4l-3.5-7l3.5,1.7l3.5-1.8L246.5,69.4z"/>
	<path pointer-events="all" class="st5" d="M131,0.5h531c2.5,0,4.5,2,4.5,4.5v21c0,2.5-2,4.5-4.5,4.5H131c-2.5,0-4.5-2-4.5-4.5V5
		C126.5,2.5,128.5,0.5,131,0.5z"/>
	<g transform="translate(-0.5 -0.5)">
		<text transform="matrix(1 0 0 1 349.1504 19.5)" class="st3 st6">Client (Storefront)</text>
	</g>
	<path pointer-events="stroke" class="st9" d="M416.6,102.5v12l-0.1,28.6"/>
	<path pointer-events="all" class="st8" d="M416.5,148.4l-3.5-7l3.5,1.8l3.5-1.7L416.5,148.4z"/>
	<g transform="translate(-0.5 -0.5)">
		<text transform="matrix(1 0 0 1 396.7954 122.5)" class="st3 st4">Products</text>
	</g>
	<path pointer-events="stroke" class="st9" d="M516.5,30.5v33.6"/>
	<path pointer-events="all" class="st8" d="M516.5,69.4l-3.5-7l3.5,1.8l3.5-1.8L516.5,69.4z"/>
	<path pointer-events="all" class="st10" d="M389,150.5h54c4.1,0,7.5,3.4,7.5,7.5v35c0,4.1-3.4,7.5-7.5,7.5h-54
		c-4.1,0-7.5-3.4-7.5-7.5v-35C381.5,153.9,384.9,150.5,389,150.5z"/>
	<g transform="translate(-0.5 -0.5)">
		<text transform="matrix(1 0 0 1 396.5 173.2305)" class="st11"><tspan x="0" y="0" class="st3 st4">Catalog </tspan><tspan x="0" y="13.2" class="st3 st4">Service</tspan></text>
	</g>
	<path pointer-events="all" class="st12" d="M106.5,34.5h-5c-3.3,0-5,3.3-5,10v138c0,6.7-1.7,10-5,10H89c-1.7,0-0.8,0,2.5,0H94
		c1.7,0,2.5,3.3,2.5,10v138c0,6.7,1.7,10,5,10h5"/>
	<rect x="1.5" y="173" pointer-events="all" class="st13" width="66" height="32"/>
	<g transform="translate(-0.5 -0.5)">
		<text transform="matrix(1 0 0 1 24.4854 188.5)" class="st11"><tspan x="0" y="0" class="st3 st6">Round-trip </tspan><tspan x="0" y="14.4" class="st3 st6">  Latency</tspan></text>
	</g>
	<path pointer-events="all" class="st14" d="M589,150.5h54c4.1,0,7.5,3.4,7.5,7.5v35c0,4.1-3.4,7.5-7.5,7.5h-54
		c-4.1,0-7.5-3.4-7.5-7.5v-35C581.5,153.9,584.9,150.5,589,150.5z"/>
	<g transform="translate(-0.5 -0.5)">
		<text transform="matrix(1 0 0 1 602.6621 166.6299)" class="st11"><tspan x="0" y="0" class="st3 st4">Live </tspan><tspan x="0" y="13.2" class="st3 st4">Search </tspan><tspan x="0" y="26.4" class="st3 st4">Service</tspan></text>
	</g>
	<path pointer-events="all" class="st14" d="M474.5,150.5h83c4.1,0,7.5,3.4,7.5,7.5v35c0,4.1-3.4,7.5-7.5,7.5h-83
		c-4.1,0-7.5-3.4-7.5-7.5v-35C467,153.9,470.4,150.5,474.5,150.5z"/>
	<g transform="translate(-0.5 -0.5)">
		<text transform="matrix(1 0 0 1 471.144 173.2305)" class="st11"><tspan x="0" y="0" class="st3 st4">Recommendations </tspan><tspan x="27.5" y="13.2" class="st3 st4">Service</tspan></text>
	</g>
	<path pointer-events="stroke" class="st9" d="M515.5,100.5l0,18l0.4,23.6"/>
	<path pointer-events="all" class="st8" d="M516,147.4l-3.6-6.9l3.5,1.7l3.5-1.8L516,147.4z"/>
	<g transform="translate(-0.5 -0.5)">
		<text transform="matrix(1 0 0 1 471.6443 121.5)" class="st3 st4">Recommendations</text>
	</g>
	<rect x="499" y="205" pointer-events="all" class="st13" width="43" height="18"/>
	<g transform="translate(-0.5 -0.5)">
		<text transform="matrix(1 0 0 1 504.1553 217.5)" class="st3 st6">SaaS </text>
	</g>
	<path pointer-events="all" class="st12" d="M686.5,32.5h5c3.3,0,5,3.3,5,10V78c0,6.7,1.7,10,5,10h2.5c1.7,0,0.8,0-2.5,0H699
		c-1.7,0-2.5,3.3-2.5,10v35.5c0,6.7-1.7,10-5,10h-5"/>
	<rect x="724.5" y="72" pointer-events="all" class="st13" width="66" height="32"/>
	<g transform="translate(-0.5 -0.5)">
		<text transform="matrix(1 0 0 1 709.4854 81.5)" class="st11"><tspan x="0" y="0" class="st3 st6">Round-trip </tspan><tspan x="0" y="14.4" class="st3 st6">  Latency</tspan></text>
	</g>
	<rect x="583.5" y="297.5" pointer-events="all" class="st5" width="30" height="30"/>
	<rect x="583.5" y="337.5" pointer-events="all" class="st10" width="30" height="30"/>
	<rect x="610.5" y="302.5" pointer-events="all" class="st13" width="60" height="20"/>
	<g transform="translate(-0.5 -0.5)">
		<text transform="matrix(1 0 0 1 620.4932 316.5)" class="st3 st6">Current</text>
	</g>
	<rect x="625" y="342.5" pointer-events="all" class="st13" width="40" height="20"/>
	<g transform="translate(-0.5 -0.5)">
		<text transform="matrix(1 0 0 1 633.4971 356.5)" class="st3 st6">New</text>
	</g>
	<path pointer-events="all" class="st5" d="M309.8,369.5h45.4c3.5,0,6.3,2.8,6.3,6.3v29.4c0,3.5-2.8,6.3-6.3,6.3h-45.4
		c-3.5,0-6.3-2.8-6.3-6.3v-29.4C303.5,372.3,306.3,369.5,309.8,369.5z"/>
	<g transform="translate(-0.5 -0.5)">
		<text transform="matrix(1 0 0 1 311.8184 387.5)" class="st11"><tspan x="0" y="0" class="st3 st6">Catalog </tspan><tspan x="0" y="14.4" class="st3 st6"> Export</tspan></text>
	</g>
	<path pointer-events="stroke" class="st9" d="M616.3,98.7l-0.3,42.4"/>
	<path pointer-events="all" class="st8" d="M616,146.4l-3.5-7l3.5,1.8l3.5-1.7L616,146.4z"/>
	<g transform="translate(-0.5 -0.5)">
		<text transform="matrix(1 0 0 1 599.0735 122.5)" class="st3 st4">Search</text>
	</g>
	<path pointer-events="all" class="st10" d="M371,70.5h291c2.5,0,4.5,2,4.5,4.5v21c0,2.5-2,4.5-4.5,4.5H371c-2.5,0-4.5-2-4.5-4.5V75
		C366.5,72.5,368.5,70.5,371,70.5z"/>
	<g transform="translate(-0.5 -0.5)">
		<text transform="matrix(1 0 0 1 418.7803 89.5)" class="st3 st6">Catalog Service Federated GraphQL</text>
	</g>
</g>
</svg>
